<svg width="67" height="66" viewBox="0 0 67 66" fill="none" xmlns="http://www.w3.org/2000/svg">
<rect x="5.5" y="5" width="56" height="56" rx="28" fill="#E6B027" fill-opacity="0.3"/>
<rect x="5.5" y="5" width="56" height="56" rx="28" stroke="#E6B027" stroke-opacity="0.3" stroke-width="10"/>
<path d="M21.833 27.1666L31.3587 33.8346C32.1301 34.3746 32.5158 34.6446 32.9353 34.7492C33.3059 34.8415 33.6935 34.8415 34.064 34.7492C34.4836 34.6446 34.8692 34.3746 35.6406 33.8346L45.1663 27.1666M27.433 42.3333H39.5663C41.5265 42.3333 42.5066 42.3333 43.2553 41.9518C43.9139 41.6163 44.4493 41.0808 44.7849 40.4223C45.1663 39.6736 45.1663 38.6935 45.1663 36.7333V29.2666C45.1663 27.3064 45.1663 26.3264 44.7849 25.5777C44.4493 24.9191 43.9139 24.3837 43.2553 24.0481C42.5066 23.6666 41.5265 23.6666 39.5663 23.6666H27.433C25.4728 23.6666 24.4927 23.6666 23.744 24.0481C23.0855 24.3837 22.55 24.9191 22.2145 25.5777C21.833 26.3264 21.833 27.3064 21.833 29.2666V36.7333C21.833 38.6935 21.833 39.6736 22.2145 40.4223C22.55 41.0808 23.0855 41.6163 23.744 41.9518C24.4927 42.3333 25.4728 42.3333 27.433 42.3333Z" stroke="#E6B027" stroke-width="2" stroke-linecap="round" stroke-linejoin="round"/>
</svg>
