<svg width="25" height="25" viewBox="0 0 25 25" fill="none" xmlns="http://www.w3.org/2000/svg">
<g clip-path="url(#clip0_706_730)">
<path d="M24.2109 12.1519C24.2109 18.1062 19.86 23.0442 14.1641 23.9603V15.6597H16.9211H16.9546L16.9597 15.6265L17.4917 12.1578L17.4986 12.1128H17.4531H14.1641V9.90092C14.1641 9.43208 14.2789 8.97396 14.5733 8.63355C14.8668 8.29419 15.3437 8.06592 16.0806 8.06592H17.5938H17.6328V8.02685V5.07373V5.04077L17.6003 5.03522L17.5938 5.07373L17.6003 5.03522L17.6002 5.03521L17.6 5.03518L17.5993 5.03505L17.5962 5.03453L17.5844 5.03256L17.5383 5.02509C17.4981 5.01865 17.4392 5.00947 17.3644 4.99846C17.2148 4.97644 17.0017 4.94709 16.7475 4.91774C16.2393 4.85906 15.5661 4.80029 14.9075 4.80029C13.5292 4.80029 12.3852 5.21814 11.5858 6.01831C10.7863 6.81851 10.3359 7.99656 10.3359 9.5081V12.1128H7.32812H7.28906V12.1519V15.6206V15.6597H7.32812H10.3359V23.9603C4.64002 23.0442 0.289062 18.1061 0.289062 12.1519C0.289062 5.54596 5.6442 0.190918 12.25 0.190918C18.8558 0.190918 24.2109 5.54605 24.2109 12.1519Z" fill="#1877F2" stroke="#0A0A0B" stroke-width="0.078125"/>
<path d="M16.9211 15.6206L17.4531 12.1519H14.125V9.90092C14.125 8.95179 14.5899 8.02686 16.0806 8.02686H17.5938V5.07373C17.5938 5.07373 16.2205 4.83936 14.9075 4.83936C12.1666 4.83936 10.375 6.50061 10.375 9.50811V12.1519H7.32812V15.6206H10.375V24.0061C10.9953 24.1033 11.6222 24.152 12.25 24.1519C12.8778 24.152 13.5047 24.1033 14.125 24.0061V15.6206H16.9211Z" fill="white"/>
</g>
<defs>
<clipPath id="clip0_706_730">
<rect width="24" height="24" fill="white" transform="translate(0.25 0.151855)"/>
</clipPath>
</defs>
</svg>
