<svg width="25" height="25" viewBox="0 0 25 25" fill="none" xmlns="http://www.w3.org/2000/svg">
<path d="M12.25 2.36019C14.751 2.36019 17.0266 3.3053 18.7574 4.84979L16.22 7.38726C15.1442 6.48876 13.7623 5.94352 12.25 5.94352C8.82144 5.94352 6.04167 8.7233 6.04167 12.1519C6.04167 15.5804 8.82144 18.3602 12.25 18.3602C14.9529 18.3602 17.245 16.6301 18.0979 14.2214L18.1963 13.9435H17.9015H12.4583V10.3602H21.0417V10.4017H21.25H21.8829C21.9857 10.9701 22.0417 11.5547 22.0417 12.1519C22.0417 17.5593 17.6574 21.9435 12.25 21.9435C6.84256 21.9435 2.45833 17.5593 2.45833 12.1519C2.45833 6.74441 6.84256 2.36019 12.25 2.36019Z" fill="#FFC107" stroke="#0A0A0B" stroke-width="0.416667"/>
<path d="M3.40283 7.49736L6.68833 9.90686C7.57733 7.70586 9.73033 6.15186 12.2498 6.15186C13.7793 6.15186 15.1708 6.72886 16.2303 7.67136L19.0588 4.84286C17.2728 3.17836 14.8838 2.15186 12.2498 2.15186C8.40883 2.15186 5.07783 4.32036 3.40283 7.49736Z" fill="#FF3D00"/>
<path d="M12.2502 22.1518C14.8332 22.1518 17.1802 21.1633 18.9547 19.5558L15.8597 16.9368C14.8219 17.726 13.5539 18.1529 12.2502 18.1518C9.64916 18.1518 7.44066 16.4933 6.60866 14.1788L3.34766 16.6913C5.00266 19.9298 8.36366 22.1518 12.2502 22.1518Z" fill="#4CAF50"/>
<path d="M22.0555 10.1934H21.25V10.1519H12.25V14.1519H17.9015C17.5071 15.2601 16.7967 16.2284 15.858 16.9374L15.8595 16.9364L18.9545 19.5554C18.7355 19.7544 22.25 17.1519 22.25 12.1519C22.25 11.4814 22.181 10.8269 22.0555 10.1934Z" fill="#1976D2"/>
</svg>
