<svg width="24" height="24" viewBox="0 0 24 24" fill="none" xmlns="http://www.w3.org/2000/svg">
<path d="M12.0481 19.2229C8.06127 19.2229 6.23973 17.192 6.23973 15.7023C6.2392 15.347 6.38504 15.0071 6.64296 14.7626C6.90088 14.5182 7.2481 14.3907 7.60292 14.4103C9.30986 14.4103 8.86337 16.9707 12.0481 16.9707C13.676 16.9707 14.6322 15.9908 14.6322 15.0701C14.6322 14.517 14.3161 13.8848 13.2414 13.6319L9.68524 12.7349C6.82847 12.0079 6.33061 10.4195 6.33061 8.94568C6.33061 5.8874 9.12811 4.78104 11.7913 4.78104C14.245 4.78104 17.161 6.13633 17.161 7.96971C17.161 8.75997 16.5012 9.18275 15.7346 9.18275C14.2766 9.18275 14.5216 7.136 11.5897 7.136C10.1317 7.136 9.36518 7.81957 9.36518 8.77577C9.36518 9.73198 10.4992 10.056 11.4949 10.2733L14.1186 10.866C16.9951 11.514 17.7616 13.2012 17.7616 14.8173C17.7616 17.3026 15.8374 19.2229 12.0441 19.2229H12.0481ZM23.0563 13.9638C23.1702 13.3114 23.2271 12.6504 23.2262 11.9881C23.2402 8.66163 21.7785 5.50012 19.2353 3.35585C16.6921 1.21157 13.329 0.305235 10.0527 0.881148C9.04568 0.301352 7.90355 -0.00258049 6.74154 1.65041e-05C4.3564 0.0145868 2.15787 1.2929 0.96531 3.35855C-0.227254 5.42419 -0.234968 7.96733 0.945041 10.0402C0.286605 13.6581 1.43999 17.3693 4.03316 19.9766C6.62633 22.584 10.3312 23.7576 13.9526 23.1189C14.9584 23.6982 16.0991 24.0021 17.2598 24C19.6437 23.9846 21.8409 22.7069 23.0332 20.6425C24.2255 18.5781 24.2343 16.0364 23.0563 13.9638Z" fill="#0078D7"/>
</svg>
